# xmcd
#
# Track frame offsets: 
#        150
#        14393
#        30190
#        46100
#        61045
#        81908
#        97703
#        116580
#        130018
#        146153
#        159295
#        174770
#        186865
#        198088
#
# Disc length: 2847 seconds
#
# Revision: 4
# Processed by: cddbd v1.5.2PL0 Copyright (c) Steve Scherf et al.
# Submitted via: ExactAudioCopy v0.99pb4
#
DISCID=9c0b1d0e
DTITLE=Tom Astor - Voll aus dem Leben
DYEAR=1991
DGENRE=Country
TTITLE0=Take It Easy - Nimm's leicht
TTITLE1=Ohne dich wär ich nicht ich
TTITLE2=Ich kann gut im Regen steh'n (I'm No Stranger To The Rain)
TTITLE3=Renovier deine Seele
TTITLE4=Es wird immer wieder Tag
TTITLE5=Warum Whiskey pur
TTITLE6=Ich bin kein Dichter - kein Poet
TTITLE7=Moin (Wrong)
TTITLE8=Ja, ich bin einfach, so wie du, unterwegs
TTITLE9=Home Sweet Highway
TTITLE10=Wo sind die Frau'n
TTITLE11=Danke, Johnny Cash
TTITLE12=Vielen Dank für das freundliche Getue
TTITLE13=Bist du einsam heute Nacht (Are You Lonesome Tonight)
EXTD=YEAR: 1998
EXTT0=
EXTT1=
EXTT2=
EXTT3=
EXTT4=
EXTT5=
EXTT6=
EXTT7=
EXTT8=
EXTT9=
EXTT10=
EXTT11=
EXTT12=
EXTT13=
PLAYORDER=
